<svg width="61" height="64" xmlns="http://www.w3.org/2000/svg"
    xmlns:xlink="http://www.w3.org/1999/xlink">
    <defs>
        <linearGradient x1="50%" y1="0%" x2="50%" y2="100%" id="d">
            <stop stop-color="#7A689C" offset="0%" />
            <stop stop-color="#4B3B68" offset="100%" />
        </linearGradient>
        <linearGradient x1="50%" y1="0%" x2="50%" y2="100%" id="f">
            <stop stop-color="#7F6CA1" offset="0%" />
            <stop stop-color="#493966" offset="100%" />
        </linearGradient>
        <linearGradient x1="50%" y1="0%" x2="50%" y2="100%" id="g">
            <stop stop-color="#FEF8EC" offset="0%" />
            <stop stop-color="#F8F1E1" offset="100%" />
        </linearGradient>
        <linearGradient x1="50%" y1="0%" x2="50%" y2="100%" id="h">
            <stop stop-color="#FEF8ED" offset="0%" />
            <stop stop-color="#FCF2D8" offset="100%" />
        </linearGradient>
        <ellipse id="a" cx="30.166" cy="27.78" rx="30.166" ry="27.78" />
        <ellipse id="c" cx="30.166" cy="29.838" rx="30.166" ry="29.838" />
    </defs>
    <g fill="none" fill-rule="evenodd">
        <g transform="translate(0 7.202)">
            <mask id="b" fill="#fff">
                <use xlink:href="#a" />
            </mask>
            <use fill="#2E2245" xlink:href="#a" />
            <path fill="#DBCBA6" mask="url(#b)"
                d="M4.978 38.123 2.35 41.586l6.048 8.46 4.086 2.427 2.504-4.115zm18.313 13.185-1.447 5.97h16.278l-.548-5.97zm22.267-3.359 3.006 3.868c2.67-1.922 4.568-3.486 5.693-4.693 1.124-1.207 2.535-3.123 4.232-5.75l-2.54-3.25-10.391 9.825Z" />
        </g>
        <mask id="e" fill="#fff">
            <use xlink:href="#c" />
        </mask>
        <use fill="url(#d)" xlink:href="#c" />
        <path
            d="m37.138 55.56 1.944 11.318H21.844L23.79 55.56h13.35Zm16.066-12.05 9.466 6.643-12.19 12.056-6.716-9.363 9.44-9.336Zm-45.481 0 9.44 9.336-6.717 9.363-12.189-12.056 9.466-6.643Zm59.668-21.682v17.05l-11.442-1.923V23.75l11.442-1.923Zm-73.855 0L4.978 23.75v13.204l-11.442 1.923v-17.05ZM50.48-1.503l12.19 12.056-9.466 6.643-9.44-9.337 6.717-9.362Zm-40.035 0 6.716 9.362-9.439 9.337-9.466-6.643 12.19-12.056Zm28.636-4.67L37.138 5.144h-13.35L21.845-6.173h17.238Z"
            fill="#FEF9EE" mask="url(#e)" />
        <ellipse fill="url(#f)" cx="30.166" cy="30.352" rx="26.525" ry="26.237" />
        <path
            d="M30.166 49.387c10.915 0 19.764-8.753 19.764-19.55 0-10.796-8.849-19.548-19.764-19.548S10.402 19.04 10.402 29.838c0 10.796 8.849 19.549 19.764 19.549Z"
            stroke="url(#g)" stroke-width=".972" stroke-dasharray="1.944" />
        <ellipse fill="url(#h)" cx="30.166" cy="29.838" rx="17.684" ry="17.491" />
    </g>
</svg>